<svg width="157" height="24" viewBox="0 0 157 24" fill="none" xmlns="http://www.w3.org/2000/svg">
<path d="M18.36 7.16C17.7413 5.85867 16.8453 4.856 15.672 4.152C14.4987 3.42667 13.1333 3.064 11.576 3.064C10.0187 3.064 8.61067 3.42667 7.352 4.152C6.11467 4.856 5.13333 5.88 4.408 7.224C3.704 8.54667 3.352 10.0827 3.352 11.832C3.352 13.5813 3.704 15.1173 4.408 16.44C5.13333 17.7627 6.11467 18.7867 7.352 19.512C8.61067 20.216 10.0187 20.568 11.576 20.568C13.752 20.568 15.544 19.9173 16.952 18.616C18.36 17.3147 19.1813 15.5547 19.416 13.336H10.52V10.968H22.52V13.208C22.3493 15.0427 21.7733 16.728 20.792 18.264C19.8107 19.7787 18.52 20.984 16.92 21.88C15.32 22.7547 13.5387 23.192 11.576 23.192C9.50667 23.192 7.61867 22.712 5.912 21.752C4.20533 20.7707 2.85067 19.416 1.848 17.688C0.866667 15.96 0.376 14.008 0.376 11.832C0.376 9.656 0.866667 7.704 1.848 5.976C2.85067 4.22667 4.20533 2.872 5.912 1.912C7.61867 0.930665 9.50667 0.439999 11.576 0.439999C13.944 0.439999 16.0347 1.02667 17.848 2.2C19.6827 3.37333 21.016 5.02667 21.848 7.16H18.36ZM42.3703 13.56C42.3703 14.1147 42.3383 14.7013 42.2743 15.32H28.2583C28.3649 17.048 28.9516 18.4027 30.0183 19.384C31.1063 20.344 32.4183 20.824 33.9543 20.824C35.2129 20.824 36.2583 20.536 37.0903 19.96C37.9436 19.3627 38.5409 18.5733 38.8823 17.592H42.0183C41.5489 19.2773 40.6103 20.6533 39.2023 21.72C37.7943 22.7653 36.0449 23.288 33.9543 23.288C32.2903 23.288 30.7969 22.9147 29.4743 22.168C28.1729 21.4213 27.1489 20.3653 26.4023 19C25.6556 17.6133 25.2823 16.0133 25.2823 14.2C25.2823 12.3867 25.6449 10.7973 26.3703 9.432C27.0956 8.06667 28.1089 7.02133 29.4103 6.296C30.7329 5.54933 32.2476 5.176 33.9543 5.176C35.6183 5.176 37.0903 5.53867 38.3703 6.264C39.6503 6.98933 40.6316 7.992 41.3143 9.272C42.0183 10.5307 42.3703 11.96 42.3703 13.56ZM39.3623 12.952C39.3623 11.8427 39.1169 10.8933 38.6263 10.104C38.1356 9.29333 37.4636 8.68533 36.6103 8.28C35.7783 7.85333 34.8503 7.64 33.8263 7.64C32.3543 7.64 31.0956 8.10933 30.0503 9.048C29.0263 9.98667 28.4396 11.288 28.2903 12.952H39.3623ZM49.766 7.864V18.2C49.766 19.0533 49.9473 19.6613 50.31 20.024C50.6727 20.3653 51.302 20.536 52.198 20.536H54.342V23H51.718C50.0967 23 48.8807 22.6267 48.07 21.88C47.2593 21.1333 46.854 19.9067 46.854 18.2V7.864H44.582V5.464H46.854V1.048H49.766V5.464H54.342V7.864H49.766ZM60.7823 3.064V10.52H68.9103V12.92H60.7823V20.6H69.8703V23H57.8703V0.664H69.8703V3.064H60.7823ZM80.8045 20.312L86.2445 5.464H89.3485L82.4685 23H79.0765L72.1965 5.464H75.3325L80.8045 20.312ZM108.214 13.56C108.214 14.1147 108.182 14.7013 108.118 15.32H94.102C94.2087 17.048 94.7953 18.4027 95.862 19.384C96.95 20.344 98.262 20.824 99.798 20.824C101.057 20.824 102.102 20.536 102.934 19.96C103.787 19.3627 104.385 18.5733 104.726 17.592H107.862C107.393 19.2773 106.454 20.6533 105.046 21.72C103.638 22.7653 101.889 23.288 99.798 23.288C98.134 23.288 96.6407 22.9147 95.318 22.168C94.0167 21.4213 92.9927 20.3653 92.246 19C91.4993 17.6133 91.126 16.0133 91.126 14.2C91.126 12.3867 91.4887 10.7973 92.214 9.432C92.9393 8.06667 93.9527 7.02133 95.254 6.296C96.5767 5.54933 98.0913 5.176 99.798 5.176C101.462 5.176 102.934 5.53867 104.214 6.264C105.494 6.98933 106.475 7.992 107.158 9.272C107.862 10.5307 108.214 11.96 108.214 13.56ZM105.206 12.952C105.206 11.8427 104.961 10.8933 104.47 10.104C103.979 9.29333 103.307 8.68533 102.454 8.28C101.622 7.85333 100.694 7.64 99.67 7.64C98.198 7.64 96.9393 8.10933 95.894 9.048C94.87 9.98667 94.2833 11.288 94.134 12.952H105.206ZM120.602 5.144C122.735 5.144 124.463 5.79467 125.786 7.096C127.108 8.376 127.77 10.232 127.77 12.664V23H124.89V13.08C124.89 11.3307 124.452 9.99733 123.578 9.08C122.703 8.14133 121.508 7.672 119.994 7.672C118.458 7.672 117.231 8.152 116.314 9.112C115.418 10.072 114.97 11.4693 114.97 13.304V23H112.058V5.464H114.97V7.96C115.546 7.064 116.324 6.37067 117.306 5.88C118.308 5.38933 119.407 5.144 120.602 5.144ZM136.079 7.864V18.2C136.079 19.0533 136.26 19.6613 136.623 20.024C136.985 20.3653 137.615 20.536 138.51 20.536H140.655V23H138.031C136.409 23 135.193 22.6267 134.383 21.88C133.572 21.1333 133.167 19.9067 133.167 18.2V7.864H130.895V5.464H133.167V1.048H136.079V5.464H140.655V7.864H136.079ZM150.391 23.288C149.047 23.288 147.841 23.064 146.775 22.616C145.708 22.1467 144.865 21.5067 144.247 20.696C143.628 19.864 143.287 18.9147 143.223 17.848H146.231C146.316 18.7227 146.721 19.4373 147.447 19.992C148.193 20.5467 149.164 20.824 150.359 20.824C151.468 20.824 152.343 20.5787 152.983 20.088C153.623 19.5973 153.943 18.9787 153.943 18.232C153.943 17.464 153.601 16.8987 152.919 16.536C152.236 16.152 151.18 15.7787 149.751 15.416C148.449 15.0747 147.383 14.7333 146.551 14.392C145.74 14.0293 145.036 13.5067 144.439 12.824C143.863 12.12 143.575 11.2027 143.575 10.072C143.575 9.176 143.841 8.35467 144.375 7.608C144.908 6.86133 145.665 6.27467 146.647 5.848C147.628 5.4 148.748 5.176 150.007 5.176C151.948 5.176 153.516 5.66667 154.711 6.648C155.905 7.62933 156.545 8.97333 156.631 10.68H153.719C153.655 9.76267 153.281 9.02667 152.599 8.472C151.937 7.91733 151.041 7.64 149.911 7.64C148.865 7.64 148.033 7.864 147.415 8.312C146.796 8.76 146.487 9.34667 146.487 10.072C146.487 10.648 146.668 11.128 147.031 11.512C147.415 11.8747 147.884 12.1733 148.439 12.408C149.015 12.6213 149.804 12.8667 150.807 13.144C152.065 13.4853 153.089 13.8267 153.879 14.168C154.668 14.488 155.34 14.9787 155.895 15.64C156.471 16.3013 156.769 17.1653 156.791 18.232C156.791 19.192 156.524 20.056 155.991 20.824C155.457 21.592 154.7 22.2 153.719 22.648C152.759 23.0747 151.649 23.288 150.391 23.288Z" fill="#0097FF"/>
</svg>
