<svg width="189" height="24" viewBox="0 0 189 24" fill="none" xmlns="http://www.w3.org/2000/svg">
<path d="M15.896 7.64C15.4907 6.89333 14.904 6.328 14.136 5.944C13.3893 5.53867 12.504 5.336 11.48 5.336C9.70933 5.336 8.29067 5.92267 7.224 7.096C6.15733 8.248 5.624 9.79467 5.624 11.736C5.624 13.8053 6.17867 15.4267 7.288 16.6C8.41867 17.752 9.96533 18.328 11.928 18.328C13.272 18.328 14.4027 17.9867 15.32 17.304C16.2587 16.6213 16.9413 15.64 17.368 14.36H10.424V10.328H22.328V15.416C21.9227 16.7813 21.2293 18.0507 20.248 19.224C19.288 20.3973 18.0613 21.3467 16.568 22.072C15.0747 22.7973 13.3893 23.16 11.512 23.16C9.29333 23.16 7.30933 22.68 5.56 21.72C3.832 20.7387 2.47733 19.384 1.496 17.656C0.536 15.928 0.056 13.9547 0.056 11.736C0.056 9.51733 0.536 7.544 1.496 5.816C2.47733 4.06667 3.832 2.712 5.56 1.752C7.288 0.770665 9.26133 0.279999 11.48 0.279999C14.168 0.279999 16.4293 0.930665 18.264 2.232C20.12 3.53333 21.3467 5.336 21.944 7.64H15.896ZM30.831 4.92V9.464H38.159V13.688H30.831V18.616H39.119V23H25.359V0.535999H39.119V4.92H30.831ZM58.8315 0.535999V4.92H52.8795V23H47.4075V4.92H41.4555V0.535999H58.8315ZM67.0498 4.92V9.464H74.3778V13.688H67.0498V18.616H75.3378V23H61.5778V0.535999H75.3378V4.92H67.0498ZM86.9223 17.88L90.7943 5.144H96.6183L90.2823 23H83.5303L77.1943 5.144H83.0503L86.9223 17.88ZM115.753 13.784C115.753 14.296 115.722 14.8293 115.658 15.384H103.274C103.359 16.4933 103.711 17.3467 104.33 17.944C104.97 18.52 105.748 18.808 106.666 18.808C108.031 18.808 108.98 18.232 109.514 17.08H115.338C115.039 18.2533 114.495 19.3093 113.706 20.248C112.938 21.1867 111.967 21.9227 110.794 22.456C109.62 22.9893 108.308 23.256 106.858 23.256C105.108 23.256 103.551 22.8827 102.186 22.136C100.82 21.3893 99.7535 20.3227 98.9855 18.936C98.2175 17.5493 97.8335 15.928 97.8335 14.072C97.8335 12.216 98.2068 10.5947 98.9535 9.208C99.7215 7.82133 100.788 6.75467 102.154 6.008C103.519 5.26133 105.087 4.888 106.858 4.888C108.586 4.888 110.122 5.25067 111.466 5.976C112.81 6.70133 113.855 7.736 114.602 9.08C115.37 10.424 115.753 11.992 115.753 13.784ZM110.154 12.344C110.154 11.4053 109.834 10.6587 109.194 10.104C108.554 9.54933 107.754 9.272 106.794 9.272C105.876 9.272 105.098 9.53867 104.458 10.072C103.839 10.6053 103.455 11.3627 103.306 12.344H110.154ZM129.52 4.952C131.611 4.952 133.275 5.63467 134.512 7C135.771 8.344 136.4 10.2 136.4 12.568V23H130.96V13.304C130.96 12.1093 130.651 11.1813 130.032 10.52C129.414 9.85867 128.582 9.528 127.536 9.528C126.491 9.528 125.659 9.85867 125.04 10.52C124.422 11.1813 124.112 12.1093 124.112 13.304V23H118.64V5.144H124.112V7.512C124.667 6.72267 125.414 6.104 126.352 5.656C127.291 5.18667 128.347 4.952 129.52 4.952ZM150.155 18.36V23H147.371C145.387 23 143.84 22.52 142.731 21.56C141.621 20.5787 141.067 18.9893 141.067 16.792V9.688H138.891V5.144H141.067V0.792H146.539V5.144H150.123V9.688H146.539V16.856C146.539 17.3893 146.667 17.7733 146.923 18.008C147.179 18.2427 147.605 18.36 148.203 18.36H150.155ZM161.331 23.256C159.581 23.256 158.003 22.8827 156.595 22.136C155.208 21.3893 154.109 20.3227 153.299 18.936C152.509 17.5493 152.115 15.928 152.115 14.072C152.115 12.2373 152.52 10.6267 153.331 9.24C154.141 7.832 155.251 6.75467 156.659 6.008C158.067 5.26133 159.645 4.888 161.395 4.888C163.144 4.888 164.723 5.26133 166.131 6.008C167.539 6.75467 168.648 7.832 169.459 9.24C170.269 10.6267 170.675 12.2373 170.675 14.072C170.675 15.9067 170.259 17.528 169.427 18.936C168.616 20.3227 167.496 21.3893 166.067 22.136C164.659 22.8827 163.08 23.256 161.331 23.256ZM161.331 18.52C162.376 18.52 163.261 18.136 163.987 17.368C164.733 16.6 165.107 15.5013 165.107 14.072C165.107 12.6427 164.744 11.544 164.019 10.776C163.315 10.008 162.44 9.624 161.395 9.624C160.328 9.624 159.443 10.008 158.739 10.776C158.035 11.5227 157.683 12.6213 157.683 14.072C157.683 15.5013 158.024 16.6 158.707 17.368C159.411 18.136 160.285 18.52 161.331 18.52ZM180.842 23.256C179.284 23.256 177.898 22.9893 176.682 22.456C175.466 21.9227 174.506 21.1973 173.802 20.28C173.098 19.3413 172.703 18.296 172.618 17.144H178.026C178.09 17.7627 178.378 18.264 178.89 18.648C179.402 19.032 180.031 19.224 180.778 19.224C181.46 19.224 181.983 19.096 182.346 18.84C182.73 18.5627 182.922 18.2107 182.922 17.784C182.922 17.272 182.655 16.8987 182.122 16.664C181.588 16.408 180.724 16.1307 179.53 15.832C178.25 15.5333 177.183 15.224 176.33 14.904C175.476 14.5627 174.74 14.04 174.122 13.336C173.503 12.6107 173.194 11.64 173.194 10.424C173.194 9.4 173.471 8.472 174.026 7.64C174.602 6.78667 175.434 6.11467 176.522 5.624C177.631 5.13333 178.943 4.888 180.458 4.888C182.698 4.888 184.458 5.44267 185.738 6.552C187.039 7.66133 187.786 9.13333 187.978 10.968H182.922C182.836 10.3493 182.559 9.85867 182.09 9.496C181.642 9.13333 181.044 8.952 180.298 8.952C179.658 8.952 179.167 9.08 178.826 9.336C178.484 9.57067 178.314 9.90133 178.314 10.328C178.314 10.84 178.58 11.224 179.114 11.48C179.668 11.736 180.522 11.992 181.674 12.248C182.996 12.5893 184.074 12.9307 184.906 13.272C185.738 13.592 186.463 14.1253 187.082 14.872C187.722 15.5973 188.052 16.5787 188.074 17.816C188.074 18.8613 187.775 19.8 187.178 20.632C186.602 21.4427 185.759 22.0827 184.65 22.552C183.562 23.0213 182.292 23.256 180.842 23.256Z" fill="#0097FF"/>
</svg>
